<?xml version="1.0" standalone="no"?>
<!DOCTYPE svg PUBLIC "-//W3C//DTD SVG 20010904//EN"
 "http://www.w3.org/TR/2001/REC-SVG-20010904/DTD/svg10.dtd">
<svg version="1.0" xmlns="http://www.w3.org/2000/svg"
 width="1600.000000pt" height="1200.000000pt" viewBox="0 0 1600.000000 1200.000000"
 preserveAspectRatio="xMidYMid meet">

<g transform="translate(0.000000,1200.000000) scale(0.100000,-0.100000)"
fill="#000000" stroke="none">
<path d="M9782 11230 c-29 -12 -46 -54 -32 -80 6 -11 33 -26 60 -34 73 -22 81
-30 36 -36 -75 -10 -74 -69 3 -128 34 -26 52 -32 79 -30 30 3 37 8 47 38 l12
35 21 -35 c12 -19 22 -47 22 -62 0 -73 51 -111 93 -69 33 33 30 138 -5 206
-76 146 -232 236 -336 195z"/>
<path d="M9773 10925 c-18 -8 -113 -93 -211 -189 -99 -97 -182 -176 -185 -176
-4 0 -37 20 -74 44 -161 103 -335 175 -533 218 -93 20 -132 22 -340 22 -258 0
-343 -10 -549 -65 -273 -72 -532 -207 -746 -387 -98 -82 -108 -86 -132 -59
-11 12 -57 78 -103 147 -45 69 -94 137 -108 153 -31 33 -73 36 -102 7 -35 -35
-25 -69 46 -170 129 -183 174 -251 174 -265 0 -8 -31 -50 -70 -95 -122 -141
-177 -227 -220 -344 -12 -30 -27 -59 -34 -65 -7 -6 -103 -31 -213 -55 -458
-103 -880 -223 -1233 -352 -188 -69 -404 -178 -462 -234 -43 -42 -48 -51 -48
-92 0 -57 36 -109 111 -161 111 -76 406 -181 794 -282 121 -31 374 -99 562
-151 358 -97 590 -152 758 -179 162 -26 148 -19 140 -73 -11 -78 -63 -223
-107 -296 -49 -84 -138 -173 -221 -222 -118 -70 -186 -153 -218 -264 -8 -30
-13 -126 -14 -280 -2 -187 -6 -248 -19 -300 -28 -102 -83 -196 -168 -287 -43
-45 -78 -89 -78 -96 0 -19 33 -47 56 -47 28 0 113 52 158 96 74 74 150 222
175 342 6 30 11 151 11 276 0 314 17 362 173 475 250 182 365 396 402 749 8
75 20 85 115 101 152 25 402 51 592 62 223 12 589 1 857 -27 130 -13 146 -13
168 1 19 13 24 23 21 52 -3 31 -8 38 -39 48 -49 18 -322 43 -584 55 -515 24
-1151 -53 -1224 -147 -12 -14 -21 -40 -21 -58 0 -58 -12 -60 -182 -25 -276 56
-554 127 -1373 350 -321 88 -634 205 -674 253 -7 9 -10 17 -5 17 5 0 198 33
429 74 919 162 1714 260 2409 296 342 18 1166 24 1435 11 557 -27 1243 -108
1926 -226 192 -34 1015 -192 1044 -201 25 -8 -28 -52 -114 -94 -45 -22 -84
-40 -87 -40 -3 0 -11 13 -16 29 -9 25 -21 33 -77 50 -37 12 -97 24 -134 27
-76 7 -95 -4 -89 -53 4 -35 33 -50 139 -71 44 -8 76 -19 72 -23 -13 -13 -312
-106 -513 -160 -386 -103 -945 -217 -1468 -299 -192 -30 -222 -41 -222 -84 1
-61 38 -69 217 -46 279 36 561 90 1063 201 607 136 876 219 1167 360 153 75
215 148 199 234 -8 39 -49 79 -183 174 -282 201 -1069 498 -1568 590 -369 69
-1026 137 -1560 162 -137 7 -255 16 -260 20 -6 4 -19 36 -30 70 -14 47 -29 74
-62 106 -55 56 -56 90 -8 207 19 47 35 91 35 98 0 30 23 91 40 108 10 10 38
24 62 30 68 18 88 35 88 76 0 47 -37 84 -83 84 -35 0 -67 -24 -67 -52 0 -15
-71 -78 -88 -78 -5 0 -15 7 -22 15 -7 8 -30 20 -52 26 -46 12 -82 3 -140 -37
-20 -14 -41 -23 -47 -20 -6 4 -19 26 -30 50 -23 53 -48 63 -97 40 -48 -23 -70
-71 -54 -119 13 -39 25 -45 95 -45 48 0 53 -2 63 -27 6 -16 13 -58 16 -95 5
-65 23 -115 53 -150 8 -9 13 -29 11 -44 -2 -22 -14 -33 -58 -55 -65 -34 -116
-88 -132 -141 -19 -65 -24 -67 -239 -78 -390 -20 -638 -46 -956 -98 -95 -16
-173 -26 -173 -23 0 4 18 37 40 75 65 110 159 223 304 363 320 309 607 466
996 545 101 20 143 23 350 23 205 -1 248 -3 337 -23 411 -90 715 -306 990
-705 33 -47 60 -58 92 -38 49 31 -46 185 -231 377 -65 67 -118 125 -118 129 0
5 76 85 169 179 177 180 209 223 192 255 -8 15 -34 33 -44 31 -1 -1 -17 -7
-34 -15z m-803 -1205 c330 -19 848 -70 1175 -116 465 -66 817 -161 1215 -327
204 -85 405 -180 392 -185 -6 -2 -84 13 -173 33 -1983 446 -3988 468 -6209 69
-107 -19 -204 -37 -215 -39 -65 -16 97 45 259 96 896 284 1697 429 2606 472
170 8 785 6 950 -3z"/>
<path d="M6613 10781 c-72 -52 -103 -129 -67 -165 27 -28 52 -18 124 50 74 70
85 97 52 127 -27 25 -64 21 -109 -12z"/>
<path d="M6155 10620 c-15 -17 -16 -25 -6 -67 19 -73 68 -158 122 -208 26 -25
52 -45 57 -45 6 0 20 8 33 18 33 27 28 70 -17 158 -73 144 -142 196 -189 144z"/>
<path d="M7700 10490 c-19 -10 -50 -34 -69 -54 -31 -32 -34 -39 -25 -63 7 -22
17 -29 43 -31 46 -5 85 13 126 59 72 80 21 141 -75 89z"/>
<path d="M5950 10325 c-20 -24 -15 -67 11 -88 64 -53 210 -95 256 -74 27 12
37 39 29 73 -15 60 -259 133 -296 89z"/>
<path d="M7397 10265 c-47 -24 -188 -138 -275 -222 -89 -85 -101 -114 -62
-153 36 -36 23 -43 255 148 155 128 195 166 195 183 0 17 -48 59 -67 59 -10 0
-31 -7 -46 -15z"/>
<path d="M5975 10114 c-106 -16 -136 -26 -147 -49 -16 -34 -2 -74 30 -86 42
-17 328 -4 358 16 34 22 34 78 -1 101 -26 17 -173 28 -240 18z"/>
<path d="M8780 9237 c-40 -11 -45 -15 -48 -43 -5 -49 15 -57 136 -58 59 0 124
3 144 7 69 14 76 78 10 97 -49 13 -185 11 -242 -3z"/>
<path d="M8296 9230 c-35 -11 -46 -26 -46 -61 0 -46 18 -52 147 -47 129 5 170
17 180 56 11 46 -15 57 -140 59 -62 1 -125 -2 -141 -7z"/>
<path d="M7876 9220 c-45 -8 -57 -24 -54 -65 4 -38 36 -55 108 -55 112 1 180
29 180 77 0 45 -114 66 -234 43z"/>
<path d="M9232 9215 c-28 -12 -33 -19 -30 -42 5 -45 54 -63 168 -63 118 0 145
12 145 60 0 31 -4 36 -35 47 -50 17 -207 16 -248 -2z"/>
<path d="M7389 9196 c-71 -16 -79 -21 -79 -55 0 -43 22 -54 115 -59 120 -6
192 5 221 33 28 28 30 43 10 71 -12 16 -28 19 -113 21 -54 1 -123 -4 -154 -11z"/>
<path d="M6955 9160 c-41 -7 -65 -16 -77 -31 -22 -26 -22 -38 -2 -68 16 -23
21 -23 118 -19 167 9 234 36 207 87 -6 10 -18 22 -28 26 -30 11 -155 14 -218
5z"/>
<path d="M9695 9147 c-20 -31 -13 -62 18 -79 31 -17 238 -24 265 -9 15 8 22
21 22 42 0 43 -47 61 -181 67 -106 4 -107 4 -124 -21z"/>
<path d="M6491 9125 c-96 -21 -126 -60 -81 -105 28 -28 143 -28 233 0 72 22
90 38 85 72 -6 45 -112 60 -237 33z"/>
<path d="M10197 9112 c-22 -24 -21 -55 1 -75 24 -21 147 -47 226 -47 68 0 96
17 96 58 0 30 -33 48 -122 66 -107 22 -180 21 -201 -2z"/>
<path d="M6070 9074 c-135 -27 -180 -50 -180 -90 0 -46 26 -57 120 -51 184 14
281 67 221 121 -20 18 -112 29 -161 20z"/>
<path d="M10659 9019 c-29 -56 43 -96 188 -106 67 -5 87 -3 108 11 27 18 34
56 12 74 -25 21 -132 42 -214 42 -74 0 -83 -2 -94 -21z"/>
<path d="M5456 8965 c-127 -26 -156 -42 -156 -85 0 -37 29 -60 76 -60 85 0
279 41 333 70 25 13 28 61 6 80 -27 22 -134 20 -259 -5z"/>
<path d="M11104 8935 c-40 -61 28 -97 180 -96 58 0 104 5 112 12 17 14 18 53
2 67 -27 21 -125 42 -200 42 -71 0 -79 -2 -94 -25z"/>
<path d="M7750 8764 c-270 -16 -496 -52 -686 -110 -189 -56 -254 -105 -254
-191 0 -74 72 -129 114 -87 9 8 16 28 16 43 0 44 21 61 115 91 272 90 432 110
977 126 147 4 245 11 260 18 17 9 23 20 23 46 0 59 -24 65 -285 66 -124 0
-250 -1 -280 -2z"/>
<path d="M8428 8759 c-22 -12 -24 -71 -4 -88 20 -17 129 -19 149 -2 23 18 21
57 -3 81 -15 15 -33 20 -72 20 -29 0 -61 -5 -70 -11z"/>
<path d="M9336 8414 l-28 -16 7 -116 c13 -230 65 -547 107 -659 23 -62 69
-105 129 -121 24 -6 103 -18 175 -27 140 -16 183 -29 233 -71 51 -43 75 -99
75 -174 0 -55 -8 -83 -48 -180 -54 -127 -69 -216 -46 -270 18 -43 93 -106 154
-129 28 -10 98 -31 156 -46 210 -54 321 -130 382 -262 49 -104 50 -185 5 -349
-20 -71 -39 -150 -42 -175 -7 -49 6 -89 28 -89 14 0 101 222 128 329 38 148
17 270 -67 396 -76 116 -180 186 -355 241 -163 51 -249 84 -270 105 -28 28
-23 76 17 186 20 54 42 121 50 148 52 189 -48 370 -234 425 -37 10 -118 24
-181 30 -128 12 -167 27 -186 73 -23 56 -54 220 -80 424 -32 244 -44 314 -57
331 -13 15 -16 15 -52 -4z"/>
<path d="M8472 7957 c-52 -55 -65 -141 -32 -206 24 -48 69 -77 141 -92 105
-22 118 -46 74 -145 -30 -67 -30 -76 -7 -97 29 -26 65 -21 99 16 53 55 67 94
68 178 0 67 -3 80 -27 111 -33 43 -78 65 -159 80 l-61 11 6 63 c6 56 4 66 -14
84 -26 26 -61 25 -88 -3z"/>
<path d="M7695 7548 c-33 -19 -44 -41 -45 -85 0 -35 5 -46 25 -59 61 -40 139
33 114 105 -17 47 -53 62 -94 39z"/>
<path d="M6007 6773 c-12 -15 -52 -58 -89 -95 -38 -38 -68 -75 -68 -83 0 -20
36 -55 57 -55 35 0 104 44 153 97 42 46 50 61 50 93 0 67 -63 93 -103 43z"/>
<path d="M5720 6482 c-29 -10 -176 -106 -251 -163 -93 -71 -134 -117 -168
-189 -23 -49 -26 -67 -26 -170 1 -112 2 -118 54 -273 l54 -159 -11 -76 c-20
-129 -84 -230 -181 -290 -26 -17 -119 -61 -206 -98 -248 -106 -373 -200 -443
-332 -65 -122 -74 -243 -31 -422 59 -247 -23 -477 -190 -536 -291 -101 -427
-213 -481 -394 -24 -77 -27 -155 -16 -351 8 -134 7 -151 -12 -215 -29 -94 -75
-156 -179 -239 -49 -39 -109 -98 -134 -132 -88 -115 -148 -331 -135 -478 18
-189 40 -240 91 -217 14 6 25 20 25 29 6 288 9 344 24 396 35 126 98 219 201
299 227 177 283 327 243 650 -19 155 9 260 95 353 54 58 134 105 266 156 179
69 223 104 282 220 72 144 88 309 44 484 -42 171 -30 265 50 374 68 92 154
149 349 233 194 83 260 122 332 200 99 105 139 217 132 372 -4 87 -11 119 -50
231 -54 155 -62 204 -47 273 16 75 58 128 194 240 169 140 187 158 183 183 -4
26 -37 49 -58 41z"/>
<path d="M7075 6454 c-99 -51 -122 -141 -65 -254 50 -100 38 -128 -68 -151
-93 -21 -109 -92 -28 -119 66 -22 188 19 239 79 58 69 57 139 -3 245 -34 59
-31 65 36 99 47 24 59 70 26 100 -24 22 -97 22 -137 1z"/>
<path d="M8131 6297 c-27 -30 -74 -211 -91 -352 -27 -228 29 -440 150 -563
l50 -51 -83 -123 c-46 -68 -94 -142 -107 -165 -13 -23 -29 -44 -36 -47 -7 -3
-122 8 -256 24 -307 37 -765 80 -849 80 -88 0 -113 -18 -106 -74 3 -22 74
-198 159 -391 85 -192 192 -442 238 -555 75 -187 262 -593 298 -648 18 -27 57
-39 77 -22 16 14 20 60 6 76 -15 16 -199 420 -341 749 -76 176 -186 425 -244
554 -59 129 -105 235 -104 236 4 3 814 -79 983 -100 77 -9 143 -20 146 -23 14
-15 259 -366 459 -657 235 -341 437 -627 510 -720 72 -93 72 -89 4 -82 -131
14 -370 27 -754 42 -223 8 -427 17 -453 20 -59 7 -114 -9 -122 -36 -9 -26 -1
-35 36 -43 17 -3 219 -13 448 -21 229 -8 506 -20 616 -27 285 -18 342 -17 387
7 34 19 294 311 549 616 106 128 531 693 541 720 8 21 -18 59 -40 59 -18 0
-63 -49 -145 -157 -26 -34 -51 -64 -56 -67 -5 -3 -181 167 -392 377 -370 369
-592 577 -800 750 -55 45 -99 88 -99 95 0 7 32 58 71 112 l71 100 37 -32 c239
-207 743 -709 999 -994 84 -94 163 -176 176 -182 28 -13 66 8 66 36 0 44 -315
385 -711 771 -316 307 -497 473 -542 497 -50 27 -65 11 -370 -398 -93 -126
-174 -228 -179 -228 -19 0 -72 66 -99 125 -65 139 -63 331 5 579 22 80 23 92
11 116 -24 47 -78 54 -114 17z m729 -987 c26 -26 25 -33 -11 -74 -36 -41 -61
-51 -89 -36 -31 16 -26 65 9 101 34 34 63 37 91 9z m8 -479 c166 -85 86 -281
-116 -281 -98 0 -192 75 -192 155 0 120 178 192 308 126z m430 13 c31 -22 27
-51 -12 -90 -37 -37 -66 -43 -90 -18 -25 24 -19 53 18 90 38 38 52 41 84 18z
m76 -360 c21 -20 21 -20 -15 -110 -74 -184 -105 -337 -96 -467 7 -100 27 -162
72 -214 l34 -40 -19 -31 c-11 -18 -25 -32 -31 -32 -20 0 -82 73 -106 126 -13
28 -28 78 -34 110 -15 79 -5 249 20 352 23 90 85 264 107 300 17 26 46 29 68
6z"/>
<path d="M10883 5662 c-20 -13 -31 -55 -21 -78 6 -12 33 -32 61 -45 132 -61
315 -204 378 -295 36 -53 63 -153 54 -203 -4 -20 -28 -106 -55 -191 -58 -189
-67 -253 -45 -334 31 -117 98 -179 270 -250 170 -71 231 -124 255 -227 15 -61
9 -101 -37 -283 -31 -120 -35 -150 -31 -225 7 -143 51 -212 225 -351 167 -133
201 -205 167 -351 -26 -110 -29 -200 -9 -258 42 -128 187 -236 228 -170 15 24
2 58 -47 123 -71 95 -78 148 -34 266 60 163 -15 332 -218 495 -190 153 -203
196 -138 461 32 130 36 159 32 244 -3 84 -8 105 -36 162 -55 113 -137 176
-334 257 -55 23 -88 45 -117 76 -68 74 -67 127 5 355 78 243 65 354 -60 509
-78 96 -195 190 -330 264 -101 55 -137 66 -163 49z"/>
<path d="M6725 5003 c-23 -22 -17 -48 55 -225 33 -81 60 -150 60 -152 0 -2
-29 -18 -65 -35 -122 -57 -250 -205 -311 -361 -22 -56 -26 -77 -18 -98 21 -59
103 -62 125 -5 43 107 99 203 150 255 58 59 163 119 179 102 8 -10 164 -380
215 -514 18 -47 36 -92 40 -101 5 -14 -6 -17 -70 -22 -138 -12 -296 -86 -408
-190 -39 -36 -47 -49 -47 -79 0 -28 7 -42 27 -58 36 -28 59 -21 141 45 130
105 265 151 373 127 l54 -12 51 -108 c67 -139 87 -164 128 -160 22 2 32 9 34
23 1 11 -37 112 -86 225 -49 113 -113 268 -142 345 -73 196 -418 998 -433
1007 -19 12 -34 9 -52 -9z"/>
<path d="M7532 4908 c-24 -24 -10 -57 95 -228 58 -96 160 -265 227 -375 296
-493 431 -712 449 -732 17 -19 31 -23 76 -23 31 0 119 -7 196 -15 187 -19 231
-19 239 1 11 29 6 44 -18 54 -18 6 -23 14 -19 29 10 38 -178 350 -516 859
l-260 390 -68 7 c-37 4 -133 16 -212 26 -169 22 -173 23 -189 7z m268 -86
l144 -17 40 -65 c22 -36 143 -222 270 -415 126 -192 276 -429 334 -525 57 -96
111 -181 120 -189 15 -11 8 -12 -48 -7 -36 3 -117 9 -181 13 l-116 6 -37 76
c-77 156 -329 574 -617 1023 -70 108 -75 119 -61 117 4 0 72 -8 152 -17z"/>
<path d="M7162 4593 c-29 -6 -48 -39 -31 -59 9 -11 50 -14 209 -14 146 0 200
-3 208 -12 6 -7 47 -96 92 -198 114 -257 116 -260 144 -260 36 0 38 23 7 113
-32 94 -167 394 -188 417 -11 12 -50 15 -216 16 -111 1 -212 0 -225 -3z"/>
<path d="M7210 4455 c-9 -11 1 -44 53 -172 36 -87 74 -188 86 -224 33 -99 39
-103 190 -107 69 -2 168 -1 219 3 78 6 94 10 103 27 8 16 7 24 -4 35 -12 12
-44 15 -162 15 -82 -1 -167 -4 -190 -7 l-41 -7 -43 114 c-24 62 -67 164 -97
226 -46 98 -56 112 -77 112 -14 0 -30 -7 -37 -15z"/>
<path d="M10261 4414 c-53 -38 -76 -144 -45 -210 22 -47 56 -71 123 -90 97
-26 121 -40 121 -71 0 -16 -11 -52 -25 -81 -29 -63 -30 -75 -9 -96 59 -59 161
48 172 179 3 49 0 69 -17 103 -31 61 -78 87 -195 107 l-39 6 7 64 c6 57 4 67
-14 85 -24 24 -48 25 -79 4z"/>
<path d="M10126 3489 c-22 -17 -26 -28 -26 -73 0 -69 19 -96 70 -96 30 0 43 6
64 31 33 39 36 109 6 139 -26 26 -80 26 -114 -1z"/>
<path d="M7504 3380 c-49 -20 -41 -64 14 -80 21 -5 154 -10 310 -10 150 0 441
-6 645 -12 488 -17 570 -17 590 1 22 18 22 48 -1 60 -26 14 -388 30 -942 41
-562 12 -588 12 -616 0z"/>
<path d="M8095 2483 c-365 -7 -868 -43 -1252 -89 -154 -18 -218 -22 -232 -14
-43 23 -220 -1 -257 -35 -32 -30 -120 -41 -161 -20 -27 14 -46 13 -184 -5
-360 -47 -1134 -196 -1554 -300 -325 -80 -699 -195 -796 -245 -71 -37 -61
-125 14 -125 21 0 27 -5 27 -22 0 -67 80 -169 191 -245 422 -290 1580 -501
3134 -572 330 -16 1147 -22 1510 -12 327 9 341 8 361 -10 18 -16 36 -19 141
-19 119 0 121 0 158 30 34 27 45 30 106 30 66 0 68 -1 71 -28 l3 -27 98 -3
c182 -5 665 44 1107 114 124 19 369 57 545 85 484 75 662 114 910 199 169 58
388 166 452 224 63 57 113 150 113 212 0 23 5 64 11 91 46 198 -201 384 -675
508 -618 162 -1539 249 -2941 275 -478 9 -600 9 -900 3z"/>
<path d="M12385 2306 c-15 -22 -15 -28 0 -62 9 -21 26 -49 38 -62 31 -33 103
-82 121 -82 25 0 46 30 46 64 0 35 -24 63 -114 129 -58 43 -70 45 -91 13z"/>
</g>
</svg>
